ffmpeg version N-55863-g9f38fac053-static https://johnvansickle.com/ffmpeg/  Copyright (c) 2000-2021 the FFmpeg developers
  built with gcc 8 (Debian 8.3.0-6)
  configuration: --enable-gpl --enable-version3 --enable-static --disable-debug --disable-ffplay --disable-indev=sndio --disable-outdev=sndio --cc=gcc --enable-fontconfig --enable-frei0r --enable-gnutls --enable-gmp --enable-libgme --enable-gray --enable-libaom --enable-libfribidi --enable-libass --enable-libvmaf --enable-libfreetype --enable-libmp3lame --enable-libopencore-amrnb --enable-libopencore-amrwb --enable-libopenjpeg --enable-librubberband --enable-libsoxr --enable-libspeex --enable-libsrt --enable-libvorbis --enable-libopus --enable-libtheora --enable-libvidstab --enable-libvo-amrwbenc --enable-libvpx --enable-libwebp --enable-libx264 --enable-libx265 --enable-libxml2 --enable-libdav1d --enable-libxvid --enable-libzvbi --enable-libzimg
  libavutil      56. 64.100 / 56. 64.100
  libavcodec     58.119.100 / 58.119.100
  libavformat    58. 65.101 / 58. 65.101
  libavdevice    58. 11.103 / 58. 11.103
  libavfilter     7.100.100 /  7.100.100
  libswscale      5.  8.100 /  5.  8.100
  libswresample   3.  8.100 /  3.  8.100
  libpostproc    55.  8.100 / 55.  8.100
Input #0, mov,mp4,m4a,3gp,3g2,mj2, from '/home/yiaapc5/public_html/f_data/data_userfiles/user_uploads/2601493340/v/1612460423.mp4':
  Metadata:
    major_brand     : mp42
    minor_version   : 0
    compatible_brands: isom
    creation_time   : 2013-01-31T16:21:53.000000Z
  Duration: 00:00:30.86, start: 0.000000, bitrate: 3018 kb/s
    Stream #0:0(eng): Video: h264 (Main) (avc1 / 0x31637661), yuv420p(tv), 1280x720 [SAR 1:1 DAR 16:9], 2956 kb/s, 23.98 fps, 23.98 tbr, 24k tbn, 47.95 tbc (default)
    Metadata:
      creation_time   : 2013-01-31T16:21:53.000000Z
      handler_name    : MP4 Video Media Handler
      vendor_id       : [0][0][0][0]
      encoder         : AVC Coding
    Stream #0:1(eng): Audio: aac (LC) (mp4a / 0x6134706D), 44100 Hz, stereo, fltp, 61 kb/s (default)
    Metadata:
      creation_time   : 2013-01-31T16:21:53.000000Z
      handler_name    : MP4 Sound Media Handler
      vendor_id       : [0][0][0][0]
Codec AVOption rc_eq (Set rate control equation. When computing the expression, besides the standard functions defined in the section 'Expression Evaluation', the following functions are available: bits2qp(bits), qp2bits(qp). Also the following constants are available: iTex pTex tex mv fCode iCount mcVar var isI isP isB avgQP qComp avgIITex avgPITex avgPPTex avgBPTex avgTex.) specified for output file #0 (/home/yiaapc5/public_html/f_data/data_userfiles/user_media/2601493340/v/fb69db610cdd9e02c5c1c8dacd6fd680.mob.nomob.mp4) has not been used for any stream. The most likely reason is either wrong type (e.g. a video option with no video streams) or that it is a private option of some encoder which was not actually used for any stream.
Stream mapping:
  Stream #0:0 -> #0:0 (h264 (native) -> h264 (libx264))
  Stream #0:1 -> #0:1 (aac (native) -> aac (native))
Press [q] to stop, [?] for help
[libx264 @ 0x5b7f280] Application has requested 32 threads. Using a thread count greater than 16 is not recommended.
[libx264 @ 0x5b7f280] using SAR=136/135
[libx264 @ 0x5b7f280] frame MB size (30x17) > level limit (396)
[libx264 @ 0x5b7f280] VBV bitrate (10000) > level limit (768)
[libx264 @ 0x5b7f280] VBV buffer (10000) > level limit (2000)
[libx264 @ 0x5b7f280] MB rate (12227) > level limit (11880)
[libx264 @ 0x5b7f280] using cpu capabilities: MMX2 SSE2Fast SSSE3 SSE4.2 AVX
[libx264 @ 0x5b7f280] profile Constrained Baseline, level 1.3, 4:2:0, 8-bit
[libx264 @ 0x5b7f280] 264 - core 161 r3040 35417dc - H.264/MPEG-4 AVC codec - Copyleft 2003-2021 - http://www.videolan.org/x264.html - options: cabac=0 ref=1 deblock=1:0:0 analyse=0x1:0 me=hex subme=1 psy=1 psy_rd=1.00:0.00 mixed_ref=0 me_range=16 chroma_me=1 trellis=0 8x8dct=0 cqm=0 deadzone=21,11 fast_pskip=1 chroma_qp_offset=0 threads=32 lookahead_threads=2 sliced_threads=0 nr=0 decimate=1 interlaced=0 bluray_compat=0 constrained_intra=0 bframes=0 weightp=0 keyint=300 keyint_min=25 scenecut=40 intra_refresh=0 rc_lookahead=30 rc=abr mbtree=1 bitrate=1000 ratetol=1.0 qcomp=0.60 qpmin=10 qpmax=51 qpstep=4 vbv_maxrate=10000 vbv_bufsize=10000 nal_hrd=none filler=0 ip_ratio=1.41 aq=1:1.00
Output #0, mp4, to '/home/yiaapc5/public_html/f_data/data_userfiles/user_media/2601493340/v/fb69db610cdd9e02c5c1c8dacd6fd680.mob.nomob.mp4':
  Metadata:
    major_brand     : mp42
    minor_version   : 0
    compatible_brands: isom
    encoder         : Lavf58.65.101
    Stream #0:0(eng): Video: h264 (avc1 / 0x31637661), yuv420p(tv, progressive), 480x272 [SAR 136:135 DAR 16:9], q=2-31, 1000 kb/s, 23.98 fps, 24k tbn (default)
    Metadata:
      creation_time   : 2013-01-31T16:21:53.000000Z
      handler_name    : MP4 Video Media Handler
      vendor_id       : [0][0][0][0]
      encoder         : Lavc58.119.100 libx264
    Side data:
      cpb: bitrate max/min/avg: 10000000/0/1000000 buffer size: 10000000 vbv_delay: N/A
    Stream #0:1(eng): Audio: aac (LC) (mp4a / 0x6134706D), 44100 Hz, stereo, fltp, 61 kb/s (default)
    Metadata:
      creation_time   : 2013-01-31T16:21:53.000000Z
      handler_name    : MP4 Sound Media Handler
      vendor_id       : [0][0][0][0]
      encoder         : Lavc58.119.100 aac
frame=    2 fps=0.0 q=0.0 size=       0kB time=00:00:00.53 bitrate=   0.7kbits/s dup=1 drop=0 speed=12.6x    frame=  203 fps=0.0 q=20.0 size=     768kB time=00:00:08.89 bitrate= 707.5kbits/s dup=1 drop=0 speed=16.4x    frame=  426 fps=408 q=20.0 size=    1792kB time=00:00:18.27 bitrate= 803.3kbits/s dup=1 drop=0 speed=17.5x    frame=  649 fps=420 q=23.0 size=    3072kB time=00:00:27.44 bitrate= 916.9kbits/s dup=1 drop=0 speed=17.8x    frame=  740 fps=421 q=-1.0 Lsize=    4046kB time=00:00:30.83 bitrate=1074.7kbits/s dup=1 drop=0 speed=17.6x    
video:3800kB audio:227kB subtitle:0kB other streams:0kB global headers:0kB muxing overhead: 0.467799%
[libx264 @ 0x5b7f280] frame I:11    Avg QP:13.44  size: 20595
[libx264 @ 0x5b7f280] frame P:729   Avg QP:15.46  size:  5026
[libx264 @ 0x5b7f280] mb I  I16..4: 28.6%  0.0% 71.4%
[libx264 @ 0x5b7f280] mb P  I16..4: 15.3%  0.0%  0.0%  P16..4: 53.1%  0.0%  0.0%  0.0%  0.0%    skip:31.6%
[libx264 @ 0x5b7f280] final ratefactor: 15.81
[libx264 @ 0x5b7f280] coded y,uvDC,uvAC intra: 56.1% 54.4% 32.9% inter: 33.1% 21.8% 4.4%
[libx264 @ 0x5b7f280] i16 v,h,dc,p: 36% 32% 12% 20%
[libx264 @ 0x5b7f280] i4 v,h,dc,ddl,ddr,vr,hd,vl,hu: 22% 24% 10%  7%  8%  6%  7%  6%  9%
[libx264 @ 0x5b7f280] i8c dc,h,v,p: 43% 29% 20%  8%
[libx264 @ 0x5b7f280] kb/s:1008.40
[aac @ 0x5b9f580] Qavg: 1936.923
